<svg width="40" height="50" viewBox="0 0 40 50" fill="none" xmlns="http://www.w3.org/2000/svg">
<path d="M32.0858 32.6203C31.4765 32.8001 30.582 32.8204 29.623 32.6813C28.5938 32.532 27.5439 32.2174 26.512 31.7537C28.3521 31.486 29.7796 31.5685 31.0006 32.0011C31.2899 32.1036 31.765 32.3776 32.0858 32.6203ZM21.819 30.9324C21.7441 30.9527 21.6704 30.972 21.597 30.9924C21.1019 31.1271 20.6201 31.2586 20.1559 31.3756L19.5299 31.5344C18.2706 31.853 16.9831 32.1785 15.7115 32.5661C16.1947 31.4008 16.6438 30.2225 17.0834 29.0705C17.4089 28.2177 17.7413 27.3466 18.085 26.4867C18.2594 26.7747 18.4414 27.0629 18.6308 27.3517C19.4935 28.6657 20.578 29.8806 21.819 30.9324ZM18.6159 17.7908C18.6975 19.2288 18.3873 20.6121 17.9321 21.9392C17.3715 20.2982 17.1103 18.4861 17.8111 17.0231C17.9909 16.6481 18.1381 16.4476 18.2336 16.343C18.3811 16.5707 18.5751 17.0803 18.6159 17.7908ZM12.0418 36.0068C11.7268 36.5703 11.4053 37.0978 11.0758 37.5959C10.2805 38.7944 8.97991 40.0776 8.31176 40.0776C8.24601 40.0776 8.16645 40.067 8.05019 39.9443C7.97535 39.8658 7.96336 39.8095 7.96699 39.7327C7.98951 39.2921 8.57334 38.5074 9.41909 37.7798C10.1867 37.1196 11.0544 36.5328 12.0418 36.0068ZM34.2132 32.6826C34.1111 31.2149 31.6404 30.2732 31.616 30.2645C30.6609 29.9259 29.6232 29.7614 28.444 29.7614C27.1816 29.7614 25.8206 29.944 24.0727 30.3524C22.5175 29.2499 21.174 27.8696 20.1702 26.3416C19.727 25.6665 19.3285 24.9926 18.9811 24.3344C19.8291 22.3068 20.5927 20.1266 20.454 17.6849C20.3421 15.727 19.4593 14.4119 18.2586 14.4119C17.435 14.4119 16.7259 15.0219 16.1493 16.2266C15.1206 18.3734 15.391 21.1203 16.9525 24.398C16.3901 25.7189 15.8676 27.0883 15.3619 28.4139C14.7326 30.0623 14.0843 31.7629 13.3535 33.3806C11.3042 34.1915 9.6206 35.1749 8.21752 36.3821C7.29837 37.1716 6.19029 38.3785 6.12704 39.6384C6.09616 40.2317 6.29961 40.7759 6.71305 41.2119C7.15229 41.6748 7.70411 41.9185 8.31088 41.9193C10.3149 41.9193 12.2436 39.1659 12.6095 38.6136C13.3459 37.5036 14.0351 36.2655 14.7105 34.8374C16.4115 34.2226 18.2242 33.7638 19.9812 33.3203L20.6105 33.1604C21.0835 33.0401 21.5751 32.9071 22.0794 32.7691C22.613 32.6249 23.162 32.4753 23.72 32.3331C25.5241 33.4805 27.4642 34.2289 29.3564 34.5035C30.9501 34.7354 32.3655 34.6009 33.3236 34.1014C34.1857 33.6524 34.2332 32.9595 34.2132 32.6826ZM38.0944 45.3035C38.0944 47.9915 35.7252 48.1573 35.2472 48.1626H4.68107C2.0028 48.1626 1.84153 45.7773 1.83641 45.3035L1.83605 4.69552C1.83605 2.00487 4.20954 1.84175 4.68071 1.83635H25.3288L25.3397 1.84725V9.90495C25.3397 11.522 26.3174 14.5836 30.0198 14.5836H38.0254L38.0941 14.6522L38.0944 45.3035ZM36.1965 12.747H30.0211C27.3436 12.747 27.1816 10.3746 27.178 9.90521V3.69134L36.1965 12.747ZM39.9309 45.3035V13.8946L27.178 1.08878V1.0292H27.117L26.0928 0H4.68114C3.06193 0 0 0.98167 0 4.69639V45.3044C0 46.9284 0.978695 50 4.68114 50H35.2501C36.869 49.9996 39.9309 49.0179 39.9309 45.3035Z" fill="#EE2323"/>
</svg>
