<svg width="30" height="30" viewBox="0 0 30 30" fill="none" xmlns="http://www.w3.org/2000/svg">
<circle cx="15" cy="15" r="15" fill="white"/>
<path d="M12.0007 15.0004C12.0007 13.3436 13.3435 12.0001 15.0004 12.0001C16.6572 12.0001 18.0007 13.3436 18.0007 15.0004C18.0007 16.6573 16.6572 18.0008 15.0004 18.0008C13.3435 18.0008 12.0007 16.6573 12.0007 15.0004ZM10.3788 15.0004C10.3788 17.5529 12.4479 19.622 15.0004 19.622C17.5529 19.622 19.6219 17.5529 19.6219 15.0004C19.6219 12.4479 17.5529 10.3788 15.0004 10.3788C12.4479 10.3788 10.3788 12.4479 10.3788 15.0004ZM18.7249 10.1956C18.7248 10.4092 18.788 10.6181 18.9066 10.7957C19.0252 10.9734 19.1939 11.1119 19.3912 11.1937C19.5885 11.2755 19.8057 11.297 20.0152 11.2554C20.2247 11.2138 20.4172 11.111 20.5683 10.96C20.7194 10.8091 20.8223 10.6167 20.8641 10.4072C20.9059 10.1977 20.8846 9.9805 20.8029 9.78311C20.7212 9.58573 20.5829 9.41699 20.4053 9.29825C20.2277 9.1795 20.0189 9.11607 19.8053 9.11599H19.8049C19.5186 9.11612 19.244 9.22989 19.0415 9.43232C18.839 9.63474 18.7251 9.90927 18.7249 10.1956ZM11.3642 22.3265C10.4867 22.2865 10.0098 22.1404 9.69281 22.0169C9.2726 21.8533 8.97278 21.6585 8.65755 21.3437C8.34233 21.0289 8.1472 20.7293 7.98433 20.3091C7.86077 19.9923 7.7146 19.5152 7.67471 18.6377C7.63108 17.689 7.62237 17.404 7.62237 15.0005C7.62237 12.597 7.6318 12.3128 7.67471 11.3633C7.71468 10.4858 7.86192 10.0096 7.98433 9.69186C8.14792 9.27166 8.34276 8.97184 8.65755 8.65661C8.97235 8.34138 9.27188 8.14625 9.69281 7.98338C10.0096 7.85982 10.4867 7.71366 11.3642 7.67377C12.3129 7.63013 12.5979 7.62142 15.0004 7.62142C17.4028 7.62142 17.6881 7.63085 18.6376 7.67377C19.5151 7.71373 19.9912 7.86098 20.309 7.98338C20.7292 8.14625 21.029 8.34181 21.3442 8.65661C21.6595 8.9714 21.8539 9.27166 22.0175 9.69186C22.141 10.0087 22.2872 10.4858 22.3271 11.3633C22.3707 12.3128 22.3794 12.597 22.3794 15.0005C22.3794 17.404 22.3707 17.6882 22.3271 18.6377C22.2871 19.5152 22.1402 19.9922 22.0175 20.3091C21.8539 20.7293 21.659 21.0292 21.3442 21.3437C21.0294 21.6582 20.7292 21.8533 20.309 22.0169C19.9922 22.1404 19.5151 22.2866 18.6376 22.3265C17.6889 22.3701 17.4039 22.3788 15.0004 22.3788C12.5968 22.3788 12.3126 22.3701 11.3642 22.3265ZM11.2897 6.05457C10.3315 6.0982 9.67683 6.25013 9.10505 6.47262C8.5129 6.70238 8.01162 7.01062 7.51069 7.51075C7.00977 8.01089 6.70232 8.51296 6.47255 9.10511C6.25007 9.67725 6.09814 10.3316 6.05451 11.2898C6.01015 12.2494 6 12.5562 6 15.0004C6 17.4446 6.01015 17.7514 6.05451 18.7111C6.09814 19.6693 6.25007 20.3236 6.47255 20.8957C6.70232 21.4875 7.00984 21.9902 7.51069 22.4901C8.01154 22.99 8.5129 23.2978 9.10505 23.5282C9.67791 23.7507 10.3315 23.9026 11.2897 23.9463C12.2499 23.9899 12.5562 24.0008 15.0004 24.0008C17.4446 24.0008 17.7514 23.9906 18.711 23.9463C19.6692 23.9026 20.3235 23.7507 20.8957 23.5282C21.4875 23.2978 21.9891 22.9902 22.49 22.4901C22.991 21.99 23.2978 21.4875 23.5282 20.8957C23.7507 20.3236 23.9033 19.6692 23.9462 18.7111C23.9898 17.7507 24 17.4446 24 15.0004C24 12.5562 23.9898 12.2494 23.9462 11.2898C23.9026 10.3315 23.7507 9.67689 23.5282 9.10511C23.2978 8.51332 22.9902 8.01168 22.49 7.51075C21.9899 7.00983 21.4875 6.70238 20.8964 6.47262C20.3235 6.25013 19.6692 6.09748 18.7117 6.05457C17.7521 6.01093 17.4453 6.00006 15.0011 6.00006C12.5569 6.00006 12.2499 6.01021 11.2897 6.05457Z" fill="url(#paint0_radial_74_21)"/>
<path d="M12.0007 15.0004C12.0007 13.3436 13.3435 12.0001 15.0004 12.0001C16.6572 12.0001 18.0007 13.3436 18.0007 15.0004C18.0007 16.6573 16.6572 18.0008 15.0004 18.0008C13.3435 18.0008 12.0007 16.6573 12.0007 15.0004ZM10.3788 15.0004C10.3788 17.5529 12.4479 19.622 15.0004 19.622C17.5529 19.622 19.6219 17.5529 19.6219 15.0004C19.6219 12.4479 17.5529 10.3788 15.0004 10.3788C12.4479 10.3788 10.3788 12.4479 10.3788 15.0004ZM18.7249 10.1956C18.7248 10.4092 18.788 10.6181 18.9066 10.7957C19.0252 10.9734 19.1939 11.1119 19.3912 11.1937C19.5885 11.2755 19.8057 11.297 20.0152 11.2554C20.2247 11.2138 20.4172 11.111 20.5683 10.96C20.7194 10.8091 20.8223 10.6167 20.8641 10.4072C20.9059 10.1977 20.8846 9.9805 20.8029 9.78311C20.7212 9.58573 20.5829 9.41699 20.4053 9.29825C20.2277 9.1795 20.0189 9.11607 19.8053 9.11599C19.519 9.11612 19.244 9.22989 19.0415 9.43232C18.839 9.63474 18.7251 9.90927 18.7249 10.1956ZM11.3642 22.3265C10.4867 22.2865 10.0098 22.1404 9.69281 22.0169C9.2726 21.8533 8.97278 21.6585 8.65755 21.3437C8.34233 21.0289 8.1472 20.7293 7.98433 20.3091C7.86077 19.9923 7.7146 19.5152 7.67472 18.6377C7.63108 17.689 7.62237 17.404 7.62237 15.0005C7.62237 12.597 7.6318 12.3128 7.67472 11.3633C7.71468 10.4858 7.86192 10.0096 7.98433 9.69186C8.14792 9.27166 8.34276 8.97184 8.65755 8.65661C8.97235 8.34138 9.27188 8.14625 9.69281 7.98338C10.0096 7.85982 10.4867 7.71366 11.3642 7.67377C12.3129 7.63013 12.5979 7.62142 15.0004 7.62142C17.4028 7.62142 17.6881 7.63085 18.6376 7.67377C19.5151 7.71373 19.9912 7.86098 20.309 7.98338C20.7292 8.14625 21.029 8.34181 21.3442 8.65661C21.6595 8.9714 21.8539 9.27166 22.0175 9.69186C22.141 10.0087 22.2872 10.4858 22.3271 11.3633C22.3707 12.3128 22.3794 12.597 22.3794 15.0005C22.3794 17.404 22.3707 17.6882 22.3271 18.6377C22.2871 19.5152 22.1402 19.9922 22.0175 20.3091C21.8539 20.7293 21.659 21.0292 21.3442 21.3437C21.0295 21.6582 20.7292 21.8533 20.309 22.0169C19.9922 22.1404 19.5151 22.2866 18.6376 22.3265C17.6889 22.3701 17.4039 22.3788 15.0004 22.3788C12.5968 22.3788 12.3126 22.3701 11.3642 22.3265ZM11.2897 6.05457C10.3315 6.0982 9.67683 6.25013 9.10505 6.47262C8.5129 6.70238 8.01162 7.01062 7.51069 7.51075C7.00977 8.01089 6.70232 8.51296 6.47255 9.10511C6.25007 9.67725 6.09814 10.3316 6.05451 11.2898C6.01015 12.2494 6 12.5562 6 15.0004C6 17.4446 6.01015 17.7514 6.05451 18.7111C6.09814 19.6693 6.25007 20.3236 6.47255 20.8957C6.70232 21.4875 7.00984 21.9902 7.51069 22.4901C8.01154 22.99 8.5129 23.2978 9.10505 23.5282C9.67791 23.7507 10.3315 23.9026 11.2897 23.9463C12.2499 23.9899 12.5562 24.0008 15.0004 24.0008C17.4446 24.0008 17.7514 23.9906 18.711 23.9463C19.6692 23.9026 20.3235 23.7507 20.8957 23.5282C21.4875 23.2978 21.9891 22.9902 22.49 22.4901C22.991 21.99 23.2978 21.4875 23.5282 20.8957C23.7507 20.3236 23.9033 19.6692 23.9462 18.7111C23.9898 17.7507 24 17.4446 24 15.0004C24 12.5562 23.9898 12.2494 23.9462 11.2898C23.9026 10.3315 23.7507 9.67689 23.5282 9.10511C23.2978 8.51332 22.9902 8.01168 22.49 7.51075C21.9899 7.00983 21.4875 6.70238 20.8964 6.47262C20.3235 6.25013 19.6692 6.09748 18.7117 6.05457C17.7521 6.01093 17.4453 6.00006 15.0011 6.00006C12.5569 6.00006 12.2499 6.01021 11.2897 6.05457Z" fill="url(#paint1_radial_74_21)"/>
<defs>
<radialGradient id="paint0_radial_74_21" cx="0" cy="0" r="1" gradientUnits="userSpaceOnUse" gradientTransform="translate(8.3915 24.0858) scale(23.4984 23.4984)">
<stop offset="0.09" stop-color="#FA8F21"/>
<stop offset="0.78" stop-color="#D82D7E"/>
</radialGradient>
<radialGradient id="paint1_radial_74_21" cx="0" cy="0" r="1" gradientUnits="userSpaceOnUse" gradientTransform="translate(16.9166 24.8922) scale(18.52)">
<stop offset="0.64" stop-color="#8C3AAA" stop-opacity="0"/>
<stop offset="1" stop-color="#8C3AAA"/>
</radialGradient>
</defs>
</svg>
