<svg width="30" height="30" viewBox="0 0 30 30" fill="none" xmlns="http://www.w3.org/2000/svg">
<circle cx="15" cy="15" r="15" fill="white"/>
<path d="M9.30466 23.2955V14.9752L4.49997 11.2838V21.5377C4.49997 22.7096 5.08591 23.2955 6.25778 23.2955" fill="#4285F4"/>
<path d="M9.07028 14.9166L15.0468 19.4283L21.0234 14.9166V9.17444L15.0468 13.6862L9.07028 9.17444" fill="#EA4335"/>
<path d="M20.789 23.2955V14.9752L25.5937 11.2838V21.5377C25.5937 22.7096 25.0078 23.2955 23.8359 23.2955" fill="#34A853"/>
<path d="M4.49997 11.401L9.30466 15.0924V9.35023L7.54684 8.00257C5.96481 6.77211 4.49997 8.00257 4.49997 9.52601" fill="#C5221F"/>
<path d="M25.5937 11.401L20.789 15.0924V9.35023L22.5468 8.00257C24.1289 6.77211 25.5937 8.00257 25.5937 9.52601" fill="#FBBC04"/>
</svg>
