<svg width="30" height="30" viewBox="0 0 30 30" fill="none" xmlns="http://www.w3.org/2000/svg">
<circle cx="15" cy="15" r="15" fill="white"/>
<path d="M12.8846 21.3668C9.03846 22.5206 9.03846 19.4437 7.5 19.0591M18.2692 23.6745V20.6975C18.2981 20.3307 18.2485 19.962 18.1239 19.6158C17.9992 19.2697 17.8023 18.954 17.5462 18.6898C19.9615 18.4206 22.5 17.5052 22.5 13.3052C22.4998 12.2312 22.0867 11.1985 21.3462 10.4206C21.6968 9.481 21.672 8.44242 21.2769 7.52061C21.2769 7.52061 20.3692 7.25138 18.2692 8.65907C16.5062 8.18124 14.6477 8.18124 12.8846 8.65907C10.7846 7.25138 9.87692 7.52061 9.87692 7.52061C9.48183 8.44242 9.45703 9.481 9.80769 10.4206C9.06164 11.2042 8.64809 12.2464 8.65385 13.3283C8.65385 17.4975 11.1923 18.4129 13.6077 18.7129C13.3546 18.9744 13.1594 19.2863 13.0349 19.6282C12.9103 19.9702 12.8591 20.3345 12.8846 20.6975V23.6745" stroke="black" stroke-width="1.5" stroke-linecap="round" stroke-linejoin="round"/>
</svg>
