<svg width="22" height="22" viewBox="0 0 22 22" fill="none" xmlns="http://www.w3.org/2000/svg">
<path d="M11 21C16.5228 21 21 16.5228 21 11C21 5.47715 16.5228 1 11 1C5.47715 1 1 5.47715 1 11C1 16.5228 5.47715 21 11 21Z" stroke="white" stroke-width="1.5" stroke-linejoin="round"/>
<path d="M11 1C11 1 7.11108 4.33333 7.11108 11C7.11108 17.6667 11 21 11 21" stroke="white" stroke-width="1.5" stroke-linejoin="round"/>
<path d="M11 1C11 1 14.8889 4.33333 14.8889 11C14.8889 17.6667 11 21 11 21" stroke="white" stroke-width="1.5" stroke-linejoin="round"/>
<path d="M1 11H21" stroke="white" stroke-width="1.5" stroke-linejoin="round"/>
<path d="M19.3333 6H2.66663" stroke="white" stroke-width="1.5" stroke-linejoin="round"/>
<path d="M19.3333 16H2.66663" stroke="white" stroke-width="1.5" stroke-linejoin="round"/>
</svg>
