<svg width="210" height="50" viewBox="0 0 210 50" fill="none" xmlns="http://www.w3.org/2000/svg">
<path d="M61.2228 34.752C60.6254 35.2427 59.9001 35.6267 59.0468 35.904C58.2148 36.1813 57.3721 36.32 56.5188 36.32C55.0468 36.32 53.7454 36.032 52.6148 35.456C51.5054 34.88 50.6414 34.0693 50.0228 33.024C49.4041 31.9787 49.0948 30.7307 49.0948 29.28C49.0948 27.8507 49.4254 26.6133 50.0868 25.568C50.7481 24.5013 51.6228 23.6907 52.7108 23.136C53.7988 22.56 54.9508 22.272 56.1667 22.272C57.2761 22.272 58.2574 22.4213 59.1108 22.72C59.9641 23.0187 60.7001 23.4347 61.3188 23.968L59.6868 26.112C59.3241 25.8133 58.8654 25.5467 58.3108 25.312C57.7774 25.0773 57.1588 24.96 56.4548 24.96C55.7081 24.96 55.0254 25.152 54.4068 25.536C53.7881 25.8987 53.2974 26.4107 52.9348 27.072C52.5721 27.712 52.3908 28.448 52.3908 29.28C52.3908 30.0693 52.5721 30.8053 52.9348 31.488C53.3188 32.1493 53.8414 32.672 54.5028 33.056C55.1641 33.44 55.9214 33.632 56.7748 33.632C57.3294 33.632 57.8414 33.5573 58.3108 33.408C58.7801 33.2373 59.1961 33.0027 59.5588 32.704L61.2228 34.752ZM63.8448 29.152C63.8448 27.808 64.1648 26.6027 64.8048 25.536C65.4448 24.448 66.3301 23.5947 67.4608 22.976C68.5914 22.3573 69.8821 22.048 71.3328 22.048C72.8048 22.048 74.0954 22.3573 75.2048 22.976C76.3141 23.5947 77.1674 24.448 77.7648 25.536C78.3834 26.6027 78.6928 27.808 78.6928 29.152C78.6928 30.496 78.3834 31.712 77.7648 32.8C77.1674 33.888 76.3141 34.752 75.2048 35.392C74.0954 36.0107 72.7941 36.32 71.3008 36.32C69.8714 36.32 68.5914 36.032 67.4608 35.456C66.3514 34.88 65.4661 34.0587 64.8048 32.992C64.1648 31.904 63.8448 30.624 63.8448 29.152ZM67.1727 29.184C67.1727 30.016 67.3541 30.7733 67.7168 31.456C68.0794 32.1173 68.5701 32.6507 69.1888 33.056C69.8074 33.44 70.5008 33.632 71.2688 33.632C72.0581 33.632 72.7621 33.44 73.3808 33.056C73.9994 32.6507 74.4794 32.1173 74.8208 31.456C75.1834 30.7733 75.3648 30.016 75.3648 29.184C75.3648 28.352 75.1834 27.6053 74.8208 26.944C74.4794 26.2827 73.9994 25.7493 73.3808 25.344C72.7621 24.9387 72.0581 24.736 71.2688 24.736C70.4794 24.736 69.7754 24.9387 69.1568 25.344C68.5381 25.7493 68.0474 26.2933 67.6848 26.976C67.3434 27.6373 67.1727 28.3733 67.1727 29.184ZM85.5345 22.592L85.8225 25.664L85.6945 25.248C86.1425 24.288 86.8358 23.52 87.7745 22.944C88.7132 22.3467 89.8225 22.048 91.1025 22.048C92.3612 22.048 93.3958 22.4213 94.2065 23.168C95.0385 23.9147 95.4652 24.8853 95.4865 26.08V36H92.1905V27.232C92.1692 26.5493 91.9665 25.9947 91.5825 25.568C91.1985 25.12 90.6012 24.8853 89.7905 24.864C89.0652 24.864 88.4038 25.088 87.8065 25.536C87.2092 25.9627 86.7398 26.5493 86.3985 27.296C86.0572 28.0427 85.8865 28.9067 85.8865 29.888V36H82.5905V22.592H85.5345ZM105.628 36.352L98.044 22.592H101.948L106.876 32.96L104.86 32.864L109.34 22.592H113.02L105.756 36.352H105.628ZM122.051 36.32C120.493 36.32 119.16 36.0213 118.051 35.424C116.941 34.8053 116.088 33.9627 115.491 32.896C114.893 31.808 114.595 30.5707 114.595 29.184C114.595 27.8613 114.925 26.6667 115.587 25.6C116.269 24.512 117.176 23.648 118.307 23.008C119.459 22.368 120.728 22.048 122.115 22.048C123.907 22.048 125.389 22.5707 126.563 23.616C127.757 24.6613 128.557 26.1227 128.963 28L118.051 31.776L117.283 29.856L126.019 26.72L125.347 27.136C125.091 26.4747 124.685 25.8987 124.131 25.408C123.576 24.896 122.819 24.64 121.859 24.64C121.091 24.64 120.397 24.832 119.779 25.216C119.181 25.5787 118.701 26.0907 118.339 26.752C117.997 27.392 117.827 28.1493 117.827 29.024C117.827 29.92 118.008 30.7093 118.371 31.392C118.755 32.0533 119.267 32.576 119.907 32.96C120.568 33.344 121.304 33.536 122.115 33.536C122.691 33.536 123.235 33.4293 123.747 33.216C124.28 33.0027 124.781 32.736 125.251 32.416L126.755 34.848C126.051 35.296 125.283 35.6587 124.451 35.936C123.64 36.192 122.84 36.32 122.051 36.32ZM135.566 22.592L135.886 26.432L135.726 25.92C136.088 25.1093 136.6 24.416 137.262 23.84C137.923 23.264 138.606 22.8267 139.31 22.528C140.035 22.208 140.643 22.048 141.134 22.048L140.974 25.312C139.95 25.248 139.054 25.44 138.286 25.888C137.539 26.336 136.952 26.9333 136.526 27.68C136.099 28.4267 135.886 29.2267 135.886 30.08V36H132.622V22.592H135.566ZM146.152 16.704H149.448V22.624H153.032V25.216H149.448V36H146.152V25.216H143.784V22.624H146.152V16.704ZM155.023 34.176C155.023 33.664 155.204 33.2373 155.567 32.896C155.951 32.5333 156.377 32.352 156.847 32.352C157.273 32.352 157.668 32.5333 158.031 32.896C158.415 33.2373 158.607 33.664 158.607 34.176C158.607 34.7307 158.415 35.1787 158.031 35.52C157.668 35.84 157.273 36 156.847 36C156.377 36 155.951 35.84 155.567 35.52C155.204 35.1787 155.023 34.7307 155.023 34.176ZM170.029 36.32C169.047 36.32 168.109 36.1067 167.213 35.68C166.317 35.232 165.602 34.6347 165.069 33.888L165.261 32.896V42.432H161.997V22.368H164.845L165.293 25.632L164.941 24.704C165.602 23.936 166.413 23.296 167.373 22.784C168.354 22.272 169.442 22.016 170.637 22.016C171.895 22.016 173.026 22.3147 174.029 22.912C175.031 23.5093 175.821 24.352 176.397 25.44C176.973 26.528 177.261 27.808 177.261 29.28C177.261 30.7307 176.941 31.9893 176.301 33.056C175.682 34.1013 174.829 34.912 173.741 35.488C172.653 36.0427 171.415 36.32 170.029 36.32ZM169.389 33.728C170.199 33.728 170.946 33.536 171.629 33.152C172.333 32.768 172.887 32.2453 173.293 31.584C173.719 30.9013 173.933 30.144 173.933 29.312C173.933 28.4373 173.73 27.6693 173.325 27.008C172.941 26.3253 172.418 25.792 171.757 25.408C171.117 25.024 170.402 24.832 169.613 24.832C168.866 24.832 168.205 24.9707 167.629 25.248C167.053 25.504 166.562 25.8667 166.157 26.336C165.751 26.8053 165.463 27.3707 165.293 28.032V30.496C165.421 31.1147 165.677 31.6693 166.061 32.16C166.445 32.6507 166.925 33.0347 167.501 33.312C168.077 33.5893 168.706 33.728 169.389 33.728ZM186.625 36.32C185.366 36.32 184.236 36.032 183.233 35.456C182.23 34.8587 181.441 34.016 180.865 32.928C180.289 31.84 180.001 30.5707 180.001 29.12C180.001 27.6267 180.31 26.3573 180.929 25.312C181.548 24.2453 182.38 23.4347 183.425 22.88C184.492 22.304 185.686 22.016 187.009 22.016C188.033 22.016 189.004 22.2293 189.921 22.656C190.86 23.0613 191.585 23.6373 192.097 24.384L192.001 25.504V11.136H195.265V36H191.969V32.832L192.321 33.696C191.66 34.4427 190.849 35.072 189.889 35.584C188.929 36.0747 187.841 36.32 186.625 36.32ZM187.649 33.536C188.396 33.536 189.057 33.408 189.633 33.152C190.209 32.896 190.7 32.5333 191.105 32.064C191.51 31.5733 191.798 31.008 191.969 30.368V27.68C191.82 27.0827 191.532 26.56 191.105 26.112C190.7 25.6427 190.198 25.28 189.601 25.024C189.004 24.768 188.353 24.64 187.649 24.64C186.86 24.64 186.134 24.832 185.473 25.216C184.833 25.5787 184.31 26.0907 183.905 26.752C183.521 27.4133 183.329 28.1813 183.329 29.056C183.329 29.888 183.521 30.6453 183.905 31.328C184.31 32.0107 184.844 32.5547 185.505 32.96C186.166 33.344 186.881 33.536 187.649 33.536ZM201.429 36V25.504H199.157V22.592H201.429V17.152C201.429 15.232 201.888 13.7493 202.805 12.704C203.723 11.6587 205.056 11.136 206.805 11.136C207.275 11.136 207.797 11.2107 208.373 11.36C208.949 11.488 209.461 11.7013 209.909 12L208.533 14.4C208.341 14.1867 208.117 14.0373 207.861 13.952C207.627 13.8667 207.381 13.824 207.125 13.824C206.379 13.824 205.792 14.08 205.365 14.592C204.939 15.104 204.725 15.9787 204.725 17.216V22.592H208.949V25.504H204.725V36H201.429Z" fill="white"/>
<path d="M32.0858 32.6203C31.4765 32.8001 30.582 32.8204 29.623 32.6813C28.5938 32.532 27.5439 32.2174 26.512 31.7537C28.3521 31.486 29.7796 31.5685 31.0006 32.0011C31.2899 32.1036 31.765 32.3776 32.0858 32.6203ZM21.819 30.9324C21.7441 30.9527 21.6704 30.972 21.597 30.9924C21.1019 31.1271 20.6201 31.2586 20.1559 31.3756L19.5299 31.5344C18.2706 31.853 16.9831 32.1785 15.7115 32.5661C16.1947 31.4008 16.6438 30.2225 17.0834 29.0705C17.4089 28.2177 17.7413 27.3466 18.085 26.4867C18.2594 26.7747 18.4414 27.0629 18.6308 27.3517C19.4935 28.6657 20.578 29.8806 21.819 30.9324ZM18.6159 17.7908C18.6975 19.2288 18.3873 20.6121 17.9321 21.9392C17.3715 20.2982 17.1103 18.4861 17.8111 17.0231C17.9909 16.6481 18.1381 16.4476 18.2336 16.343C18.3811 16.5707 18.5751 17.0803 18.6159 17.7908ZM12.0418 36.0068C11.7268 36.5703 11.4053 37.0978 11.0758 37.5959C10.2805 38.7944 8.97991 40.0776 8.31176 40.0776C8.24601 40.0776 8.16645 40.067 8.05019 39.9443C7.97535 39.8658 7.96336 39.8095 7.96699 39.7327C7.98951 39.2921 8.57334 38.5074 9.41909 37.7798C10.1867 37.1196 11.0544 36.5328 12.0418 36.0068ZM34.2132 32.6826C34.1111 31.2149 31.6404 30.2732 31.616 30.2645C30.6609 29.9259 29.6232 29.7614 28.444 29.7614C27.1816 29.7614 25.8206 29.944 24.0727 30.3524C22.5175 29.2499 21.174 27.8696 20.1702 26.3416C19.727 25.6665 19.3285 24.9926 18.9811 24.3344C19.8291 22.3068 20.5927 20.1266 20.454 17.6849C20.3421 15.727 19.4593 14.4119 18.2586 14.4119C17.435 14.4119 16.7259 15.0219 16.1493 16.2266C15.1206 18.3734 15.391 21.1203 16.9525 24.398C16.3901 25.7189 15.8676 27.0883 15.3619 28.4139C14.7326 30.0623 14.0843 31.7629 13.3535 33.3806C11.3042 34.1915 9.6206 35.1749 8.21752 36.3821C7.29837 37.1716 6.19029 38.3785 6.12704 39.6384C6.09616 40.2317 6.29961 40.7759 6.71305 41.2119C7.15229 41.6748 7.70411 41.9185 8.31088 41.9193C10.3149 41.9193 12.2436 39.1659 12.6095 38.6136C13.3459 37.5036 14.0351 36.2655 14.7105 34.8374C16.4115 34.2226 18.2242 33.7638 19.9812 33.3203L20.6105 33.1604C21.0835 33.0401 21.5751 32.9071 22.0794 32.7691C22.613 32.6249 23.162 32.4753 23.72 32.3331C25.5241 33.4805 27.4642 34.2289 29.3564 34.5035C30.9501 34.7354 32.3655 34.6009 33.3236 34.1014C34.1857 33.6524 34.2332 32.9595 34.2132 32.6826ZM38.0944 45.3035C38.0944 47.9915 35.7252 48.1573 35.2472 48.1626H4.68107C2.0028 48.1626 1.84153 45.7773 1.83641 45.3035L1.83605 4.69552C1.83605 2.00487 4.20954 1.84175 4.68071 1.83635H25.3288L25.3397 1.84725V9.90495C25.3397 11.522 26.3174 14.5836 30.0198 14.5836H38.0254L38.0941 14.6522L38.0944 45.3035ZM36.1965 12.747H30.0211C27.3436 12.747 27.1816 10.3746 27.178 9.90521V3.69134L36.1965 12.747ZM39.9309 45.3035V13.8946L27.178 1.08878V1.0292H27.117L26.0928 0H4.68114C3.06193 0 0 0.98167 0 4.69639V45.3044C0 46.9284 0.978695 50 4.68114 50H35.2501C36.869 49.9996 39.9309 49.0179 39.9309 45.3035Z" fill="white"/>
</svg>
