<svg width="84" height="52" viewBox="0 0 84 52" fill="none" xmlns="http://www.w3.org/2000/svg">
<path d="M38.4454 26.2407V12.0112L29.2216 2H7.90551C6.33927 2 4.83718 2.62219 3.72968 3.72968C2.62219 4.83718 2 6.33927 2 7.90551V43.8448C2 45.411 2.62219 46.9131 3.72968 48.0206C4.83718 49.1281 6.33927 49.7503 7.90551 49.7503H32.5399C34.1062 49.7503 35.6083 49.1281 36.7158 48.0206C37.8232 46.9131 38.4454 45.411 38.4454 43.8448V39.3453" stroke="#9E1E1E" stroke-opacity="0.882353" stroke-width="4" stroke-miterlimit="10" stroke-linecap="round"/>
<path d="M26.3532 2.61865V11.8425C26.3532 11.8425 26.2407 15.1046 28.3217 15.1046H37.5456" stroke="#9E1E1E" stroke-opacity="0.882353" stroke-width="4" stroke-miterlimit="10" stroke-linecap="round"/>
<path d="M40.5173 32.4363C40.5705 32.7212 40.5534 33.0148 40.4677 33.2916C40.3819 33.5684 40.23 33.8202 40.0251 34.0251C39.8202 34.23 39.5684 34.3819 39.2916 34.4677C39.0148 34.5534 38.7212 34.5705 38.4363 34.5173C38.09 34.4464 37.7722 34.2754 37.5222 34.0254C37.2722 33.7754 37.1012 33.4576 37.0303 33.1113C36.9771 32.8264 36.9941 32.5328 37.0799 32.256C37.1657 31.9792 37.3176 31.7275 37.5225 31.5225C37.7275 31.3176 37.9792 31.1657 38.256 31.0799C38.5328 30.9941 38.8264 30.9771 39.1113 31.0303C39.449 31.1194 39.7571 31.2965 40.0041 31.5435C40.2512 31.7905 40.4282 32.0986 40.5173 32.4363Z" fill="white" stroke="white" stroke-width="2" stroke-miterlimit="10"/>
<path d="M8.50593 22.386L8.74793 24.08L8.70393 23.948C9.08526 23.3027 9.56193 22.804 10.1339 22.452C10.7059 22.0853 11.3953 21.902 12.2019 21.902C12.7299 21.902 13.1919 21.9753 13.5879 22.122C13.9986 22.2687 14.3433 22.4887 14.6219 22.782C14.9006 23.0607 15.0913 23.4273 15.1939 23.882L15.0839 23.904C15.4946 23.3027 15.9859 22.8187 16.5579 22.452C17.1446 22.0853 17.7533 21.902 18.3839 21.902C19.3373 21.902 20.0926 22.1733 20.6499 22.716C21.2219 23.244 21.5153 23.9333 21.5299 24.784V32H18.4719V26.06C18.4573 25.6347 18.3913 25.29 18.2739 25.026C18.1566 24.7473 17.8853 24.5933 17.4599 24.564C16.9613 24.564 16.5359 24.74 16.1839 25.092C15.8466 25.4293 15.5899 25.8693 15.4139 26.412C15.2526 26.94 15.1719 27.49 15.1719 28.062V32H12.0919V26.06C12.0773 25.6347 11.9966 25.29 11.8499 25.026C11.7179 24.7473 11.4393 24.5933 11.0139 24.564C10.5299 24.564 10.1193 24.74 9.78193 25.092C9.45926 25.4293 9.20993 25.862 9.03393 26.39C8.8726 26.918 8.79193 27.4607 8.79193 28.018V32H5.71193V22.386H8.50593ZM25.4741 36.62L31.8761 22.386H34.6481L28.4441 36.62H25.4741ZM28.0481 32.044L23.3401 22.386H26.7941L30.4241 30.504L28.0481 32.044Z" fill="white"/>
<path d="M45.6188 18.162H48.6988V22.342H51.0308V24.74H48.6988V32H45.6188V24.74H44.1228V22.342H45.6188V18.162ZM58.105 32.264C56.9317 32.264 55.9343 32.044 55.113 31.604C54.3063 31.164 53.6903 30.5553 53.265 29.778C52.8397 29.0007 52.627 28.106 52.627 27.094C52.627 26.126 52.8763 25.2533 53.375 24.476C53.8737 23.6987 54.541 23.0827 55.377 22.628C56.213 22.1587 57.1443 21.924 58.171 21.924C59.5497 21.924 60.679 22.3273 61.559 23.134C62.4537 23.926 63.033 25.0773 63.297 26.588L55.817 28.964L55.135 27.292L60.547 25.466L59.909 25.752C59.7917 25.3707 59.579 25.0407 59.271 24.762C58.9777 24.4687 58.5303 24.322 57.929 24.322C57.4743 24.322 57.071 24.432 56.719 24.652C56.3817 24.8573 56.1177 25.158 55.927 25.554C55.751 25.9353 55.663 26.39 55.663 26.918C55.663 27.5193 55.773 28.0253 55.993 28.436C56.213 28.832 56.5137 29.1327 56.895 29.338C57.2763 29.5433 57.7017 29.646 58.171 29.646C58.5083 29.646 58.831 29.5873 59.139 29.47C59.4617 29.3527 59.777 29.1987 60.085 29.008L61.449 31.296C60.9357 31.5893 60.3783 31.824 59.777 32C59.1903 32.176 58.633 32.264 58.105 32.264ZM69.5689 25.444L71.3949 22.386H74.4529L70.6469 27.666L69.5689 25.444ZM74.9809 32H71.2629L63.8489 22.386H67.6329L74.9809 32ZM69.1729 28.92L67.0169 32H63.9589L67.7649 26.852L69.1729 28.92ZM77.695 18.162H80.775V22.342H83.107V24.74H80.775V32H77.695V24.74H76.199V22.342H77.695V18.162Z" fill="white"/>
</svg>
