<svg width="263" height="70" viewBox="0 0 263 70" fill="none" xmlns="http://www.w3.org/2000/svg">
<path d="M76.7784 49.44C76.0318 50.0533 75.1251 50.5333 74.0584 50.88C73.0184 51.2267 71.9651 51.4 70.8984 51.4C69.0584 51.4 67.4318 51.04 66.0184 50.32C64.6318 49.6 63.5518 48.5867 62.7784 47.28C62.0051 45.9733 61.6184 44.4133 61.6184 42.6C61.6184 40.8133 62.0318 39.2667 62.8584 37.96C63.6851 36.6267 64.7784 35.6133 66.1384 34.92C67.4984 34.2 68.9384 33.84 70.4584 33.84C71.8451 33.84 73.0718 34.0267 74.1384 34.4C75.2051 34.7733 76.1251 35.2933 76.8984 35.96L74.8584 38.64C74.4051 38.2667 73.8318 37.9333 73.1384 37.64C72.4718 37.3467 71.6984 37.2 70.8184 37.2C69.8851 37.2 69.0318 37.44 68.2584 37.92C67.4851 38.3733 66.8718 39.0133 66.4184 39.84C65.9651 40.64 65.7384 41.56 65.7384 42.6C65.7384 43.5867 65.9651 44.5067 66.4184 45.36C66.8984 46.1867 67.5518 46.84 68.3784 47.32C69.2051 47.8 70.1518 48.04 71.2184 48.04C71.9118 48.04 72.5518 47.9467 73.1384 47.76C73.7251 47.5467 74.2451 47.2533 74.6984 46.88L76.7784 49.44ZM80.0559 42.44C80.0559 40.76 80.4559 39.2533 81.2559 37.92C82.0559 36.56 83.1626 35.4933 84.5759 34.72C85.9893 33.9467 87.6026 33.56 89.4159 33.56C91.2559 33.56 92.8693 33.9467 94.2559 34.72C95.6426 35.4933 96.7093 36.56 97.4559 37.92C98.2293 39.2533 98.6159 40.76 98.6159 42.44C98.6159 44.12 98.2293 45.64 97.4559 47C96.7093 48.36 95.6426 49.44 94.2559 50.24C92.8693 51.0133 91.2426 51.4 89.3759 51.4C87.5893 51.4 85.9893 51.04 84.5759 50.32C83.1893 49.6 82.0826 48.5733 81.2559 47.24C80.4559 45.88 80.0559 44.28 80.0559 42.44ZM84.2159 42.48C84.2159 43.52 84.4426 44.4667 84.8959 45.32C85.3493 46.1467 85.9626 46.8133 86.7359 47.32C87.5093 47.8 88.3759 48.04 89.3359 48.04C90.3226 48.04 91.2026 47.8 91.9759 47.32C92.7493 46.8133 93.3493 46.1467 93.7759 45.32C94.2293 44.4667 94.4559 43.52 94.4559 42.48C94.4559 41.44 94.2293 40.5067 93.7759 39.68C93.3493 38.8533 92.7493 38.1867 91.9759 37.68C91.2026 37.1733 90.3226 36.92 89.3359 36.92C88.3493 36.92 87.4693 37.1733 86.6959 37.68C85.9226 38.1867 85.3093 38.8667 84.8559 39.72C84.4293 40.5467 84.2159 41.4667 84.2159 42.48ZM107.168 34.24L107.528 38.08L107.368 37.56C107.928 36.36 108.795 35.4 109.968 34.68C111.141 33.9333 112.528 33.56 114.128 33.56C115.701 33.56 116.995 34.0267 118.008 34.96C119.048 35.8933 119.581 37.1067 119.608 38.6V51H115.488V40.04C115.461 39.1867 115.208 38.4933 114.728 37.96C114.248 37.4 113.501 37.1067 112.488 37.08C111.581 37.08 110.755 37.36 110.008 37.92C109.261 38.4533 108.675 39.1867 108.248 40.12C107.821 41.0533 107.608 42.1333 107.608 43.36V51H103.488V34.24H107.168ZM132.285 51.44L122.805 34.24H127.685L133.845 47.2L131.325 47.08L136.925 34.24H141.525L132.445 51.44H132.285ZM152.813 51.4C150.867 51.4 149.2 51.0267 147.813 50.28C146.427 49.5067 145.36 48.4533 144.613 47.12C143.867 45.76 143.493 44.2133 143.493 42.48C143.493 40.8267 143.907 39.3333 144.733 38C145.587 36.64 146.72 35.56 148.133 34.76C149.573 33.96 151.16 33.56 152.893 33.56C155.133 33.56 156.987 34.2133 158.453 35.52C159.947 36.8267 160.947 38.6533 161.453 41L147.813 45.72L146.853 43.32L157.773 39.4L156.933 39.92C156.613 39.0933 156.107 38.3733 155.413 37.76C154.72 37.12 153.773 36.8 152.573 36.8C151.613 36.8 150.747 37.04 149.973 37.52C149.227 37.9733 148.627 38.6133 148.173 39.44C147.747 40.24 147.533 41.1867 147.533 42.28C147.533 43.4 147.76 44.3867 148.213 45.24C148.693 46.0667 149.333 46.72 150.133 47.2C150.96 47.68 151.88 47.92 152.893 47.92C153.613 47.92 154.293 47.7867 154.933 47.52C155.6 47.2533 156.227 46.92 156.813 46.52L158.693 49.56C157.813 50.12 156.853 50.5733 155.813 50.92C154.8 51.24 153.8 51.4 152.813 51.4ZM169.707 34.24L170.107 39.04L169.907 38.4C170.361 37.3867 171.001 36.52 171.827 35.8C172.654 35.08 173.507 34.5333 174.387 34.16C175.294 33.76 176.054 33.56 176.667 33.56L176.467 37.64C175.187 37.56 174.067 37.8 173.107 38.36C172.174 38.92 171.441 39.6667 170.907 40.6C170.374 41.5333 170.107 42.5333 170.107 43.6V51H166.027V34.24H169.707ZM182.94 26.88H187.06V34.28H191.54V37.52H187.06V51H182.94V37.52H179.98V34.28H182.94V26.88ZM194.028 48.72C194.028 48.08 194.255 47.5467 194.708 47.12C195.188 46.6667 195.721 46.44 196.308 46.44C196.841 46.44 197.335 46.6667 197.788 47.12C198.268 47.5467 198.508 48.08 198.508 48.72C198.508 49.4133 198.268 49.9733 197.788 50.4C197.335 50.8 196.841 51 196.308 51C195.721 51 195.188 50.8 194.708 50.4C194.255 49.9733 194.028 49.4133 194.028 48.72ZM212.786 51.4C211.559 51.4 210.386 51.1333 209.266 50.6C208.146 50.04 207.253 49.2933 206.586 48.36L206.826 47.12V59.04H202.746V33.96H206.306L206.866 38.04L206.426 36.88C207.253 35.92 208.266 35.12 209.466 34.48C210.693 33.84 212.053 33.52 213.546 33.52C215.119 33.52 216.533 33.8933 217.786 34.64C219.039 35.3867 220.026 36.44 220.746 37.8C221.466 39.16 221.826 40.76 221.826 42.6C221.826 44.4133 221.426 45.9867 220.626 47.32C219.853 48.6267 218.786 49.64 217.426 50.36C216.066 51.0533 214.519 51.4 212.786 51.4ZM211.986 48.16C212.999 48.16 213.933 47.92 214.786 47.44C215.666 46.96 216.359 46.3067 216.866 45.48C217.399 44.6267 217.666 43.68 217.666 42.64C217.666 41.5467 217.413 40.5867 216.906 39.76C216.426 38.9067 215.773 38.24 214.946 37.76C214.146 37.28 213.253 37.04 212.266 37.04C211.333 37.04 210.506 37.2133 209.786 37.56C209.066 37.88 208.453 38.3333 207.946 38.92C207.439 39.5067 207.079 40.2133 206.866 41.04V44.12C207.026 44.8933 207.346 45.5867 207.826 46.2C208.306 46.8133 208.906 47.2933 209.626 47.64C210.346 47.9867 211.133 48.16 211.986 48.16ZM233.531 51.4C231.958 51.4 230.545 51.04 229.291 50.32C228.038 49.5733 227.051 48.52 226.331 47.16C225.611 45.8 225.251 44.2133 225.251 42.4C225.251 40.5333 225.638 38.9467 226.411 37.64C227.185 36.3067 228.225 35.2933 229.531 34.6C230.865 33.88 232.358 33.52 234.011 33.52C235.291 33.52 236.505 33.7867 237.651 34.32C238.825 34.8267 239.731 35.5467 240.371 36.48L240.251 37.88V19.92H244.331V51H240.211V47.04L240.651 48.12C239.825 49.0533 238.811 49.84 237.611 50.48C236.411 51.0933 235.051 51.4 233.531 51.4ZM234.811 47.92C235.745 47.92 236.571 47.76 237.291 47.44C238.011 47.12 238.625 46.6667 239.131 46.08C239.638 45.4667 239.998 44.76 240.211 43.96V40.6C240.025 39.8533 239.665 39.2 239.131 38.64C238.625 38.0533 237.998 37.6 237.251 37.28C236.505 36.96 235.691 36.8 234.811 36.8C233.825 36.8 232.918 37.04 232.091 37.52C231.291 37.9733 230.638 38.6133 230.131 39.44C229.651 40.2667 229.411 41.2267 229.411 42.32C229.411 43.36 229.651 44.3067 230.131 45.16C230.638 46.0133 231.305 46.6933 232.131 47.2C232.958 47.68 233.851 47.92 234.811 47.92ZM252.037 51V37.88H249.197V34.24H252.037V27.44C252.037 25.04 252.61 23.1867 253.757 21.88C254.903 20.5733 256.57 19.92 258.757 19.92C259.343 19.92 259.997 20.0133 260.717 20.2C261.437 20.36 262.077 20.6267 262.637 21L260.917 24C260.677 23.7333 260.397 23.5467 260.077 23.44C259.783 23.3333 259.477 23.28 259.157 23.28C258.223 23.28 257.49 23.6 256.957 24.24C256.423 24.88 256.157 25.9733 256.157 27.52V34.24H261.437V37.88H256.157V51H252.037Z" fill="black"/>
<path d="M44.9201 45.6684C44.0671 45.9202 42.8148 45.9485 41.4722 45.7538C40.0313 45.5448 38.5614 45.1043 37.1168 44.4552C39.693 44.0804 41.6915 44.1959 43.4009 44.8016C43.8058 44.9451 44.471 45.3287 44.9201 45.6684ZM30.5466 43.3053C30.4418 43.3338 30.3385 43.3608 30.2358 43.3893C29.5426 43.578 28.8682 43.7621 28.2182 43.9259L27.3418 44.1481C25.5789 44.5942 23.7764 45.0499 21.9961 45.5926C22.6726 43.9611 23.3013 42.3115 23.9167 40.6987C24.3724 39.5048 24.8378 38.2853 25.319 37.0814C25.5631 37.4846 25.8179 37.888 26.0831 38.2924C27.2909 40.132 28.8092 41.8329 30.5466 43.3053ZM26.0622 24.9071C26.1765 26.9203 25.7422 28.857 25.105 30.7149C24.3201 28.4175 23.9544 25.8806 24.9356 23.8324C25.1872 23.3074 25.3934 23.0267 25.5271 22.8802C25.7336 23.199 26.0052 23.9124 26.0622 24.9071ZM16.8586 50.4095C16.4176 51.1984 15.9675 51.9369 15.5061 52.6342C14.3927 54.3121 12.5719 56.1087 11.6365 56.1087C11.5444 56.1087 11.433 56.0938 11.2703 55.922C11.1655 55.8121 11.1487 55.7333 11.1538 55.6258C11.1853 55.009 12.0027 53.9103 13.1867 52.8917C14.2614 51.9675 15.4762 51.1459 16.8586 50.4095ZM47.8985 45.7557C47.7556 43.7008 44.2965 42.3825 44.2624 42.3703C42.9252 41.8962 41.4725 41.6659 39.8216 41.6659C38.0543 41.6659 36.1489 41.9216 33.7018 42.4933C31.5245 40.9498 29.6436 39.0175 28.2383 36.8783C27.6178 35.9331 27.0599 34.9897 26.5736 34.0681C27.7608 31.2295 28.8298 28.1773 28.6356 24.7588C28.479 22.0178 27.243 20.1766 25.5621 20.1766C24.409 20.1766 23.4162 21.0306 22.609 22.7173C21.1689 25.7227 21.5474 29.5684 23.7335 34.1572C22.9462 36.0064 22.2147 37.9236 21.5066 39.7794C20.6257 42.0872 19.718 44.468 18.6949 46.7329C15.8258 47.8681 13.4688 49.2448 11.5045 50.935C10.2177 52.0403 8.6664 53.7299 8.57785 55.4937C8.53463 56.3244 8.81946 57.0862 9.39827 57.6966C10.0132 58.3447 10.7858 58.6859 11.6352 58.687C14.4408 58.687 17.1411 54.8322 17.6533 54.0591C18.6842 52.5051 19.6492 50.7717 20.5947 48.7723C22.9761 47.9117 25.5139 47.2693 27.9737 46.6484L28.8547 46.4245C29.5169 46.2562 30.2052 46.07 30.9111 45.8768C31.6582 45.6748 32.4268 45.4654 33.208 45.2664C35.7338 46.8727 38.4499 47.9204 41.0989 48.3049C43.3302 48.6295 45.3117 48.4412 46.6531 47.7419C47.86 47.1133 47.9265 46.1433 47.8985 45.7557ZM53.3321 63.4249C53.3321 67.1881 50.0153 67.4202 49.3461 67.4277H6.5535C2.80392 67.4277 2.57814 64.0882 2.57098 63.4249L2.57047 6.57373C2.57047 2.80682 5.89335 2.57845 6.553 2.57089H35.4603L35.4756 2.58615V13.8669C35.4756 16.1309 36.8443 20.4171 42.0277 20.4171H53.2355L53.3318 20.5131L53.3321 63.4249ZM50.6751 17.8458H42.0296C38.2811 17.8458 38.0543 14.5245 38.0492 13.8673V5.16787L50.6751 17.8458ZM55.9032 63.4249V19.4525L38.0492 1.52429V1.44087H37.9638L36.5299 0H6.55359C4.2867 0 0 1.37434 0 6.57494V63.4261C0 65.6997 1.37017 70 6.55359 70H49.3502C51.6166 69.9995 55.9032 68.625 55.9032 63.4249Z" fill="#EE2323"/>
</svg>
