<svg width="15" height="15" viewBox="0 0 15 15" fill="none" xmlns="http://www.w3.org/2000/svg">
<path d="M12.2917 14.5833H2.29167C1.68387 14.5833 1.10098 14.3419 0.671217 13.9121C0.241442 13.4823 0 12.8994 0 12.2917V2.29167C0 1.68387 0.241442 1.10098 0.671217 0.671217C1.10098 0.241442 1.68387 0 2.29167 0H9.675C9.84075 0 9.99975 0.06585 10.1169 0.183058C10.2342 0.300267 10.3 0.459242 10.3 0.625C10.3 0.790758 10.2342 0.949733 10.1169 1.06694C9.99975 1.18415 9.84075 1.25 9.675 1.25H2.29167C2.0154 1.25 1.75045 1.35975 1.5551 1.5551C1.35975 1.75045 1.25 2.0154 1.25 2.29167V12.2917C1.25 12.5679 1.35975 12.8329 1.5551 13.0282C1.75045 13.2236 2.0154 13.3333 2.29167 13.3333H12.2917C12.5679 13.3333 12.8329 13.2236 13.0282 13.0282C13.2236 12.8329 13.3333 12.5679 13.3333 12.2917V5.86667C13.3333 5.70092 13.3992 5.54193 13.5164 5.42472C13.6336 5.30752 13.7926 5.24167 13.9583 5.24167C14.1241 5.24167 14.2831 5.30752 14.4002 5.42472C14.5175 5.54193 14.5833 5.70092 14.5833 5.86667V12.2917C14.5833 12.8994 14.3419 13.4823 13.9121 13.9121C13.4823 14.3419 12.8994 14.5833 12.2917 14.5833Z" fill="white"/>
<path d="M6.0417 10C5.88095 9.98771 5.73137 9.91296 5.62504 9.79171L3.12505 7.29171C3.06935 7.17504 3.05117 7.04404 3.07303 6.91662C3.09489 6.78929 3.1557 6.67179 3.24709 6.58037C3.33848 6.48904 3.45595 6.42821 3.58334 6.40637C3.71072 6.38446 3.84175 6.40262 3.95838 6.45837L6.0167 8.51671L13.125 1.45836C13.2417 1.40266 13.3727 1.38448 13.5001 1.40634C13.6275 1.4282 13.745 1.48901 13.8364 1.5804C13.9277 1.67179 13.9885 1.78927 14.0104 1.91665C14.0323 2.04403 14.0141 2.17507 13.9584 2.29169L6.45837 9.79171C6.35204 9.91296 6.20254 9.98771 6.0417 10Z" fill="#EE2323"/>
</svg>
